<svg xmlns="http://www.w3.org/2000/svg" xmlns:xlink="http://www.w3.org/1999/xlink" viewBox="0 0 517.87 117.66"><defs><style>.cls-1{fill:url(#linear-gradient);}.cls-2{fill:#fff;}.cls-3{fill:url(#linear-gradient-2);}.cls-4{fill:url(#linear-gradient-3);}.cls-5{fill:url(#linear-gradient-4);}.cls-6{fill:#e40000;}</style><linearGradient id="linear-gradient" x1="516.08" y1="175.06" x2="436.04" y2="58.17" gradientUnits="userSpaceOnUse"><stop offset="0" stop-color="#be0000"/><stop offset="0.39" stop-color="#de0000"/><stop offset="0.77" stop-color="#f60000"/><stop offset="1" stop-color="red"/></linearGradient><linearGradient id="linear-gradient-2" x1="493.97" y1="122.29" x2="495.05" y2="109.96" gradientUnits="userSpaceOnUse"><stop offset="0.65" stop-color="#fff" stop-opacity="0"/><stop offset="0.69" stop-color="#ededed" stop-opacity="0.23"/><stop offset="0.76" stop-color="#d7d7d7" stop-opacity="0.5"/><stop offset="0.81" stop-color="#c6c6c6" stop-opacity="0.72"/><stop offset="0.87" stop-color="#b9b9b9" stop-opacity="0.87"/><stop offset="0.91" stop-color="#b2b2b2" stop-opacity="0.97"/><stop offset="0.95" stop-color="#afafaf"/></linearGradient><linearGradient id="linear-gradient-3" x1="478.12" y1="154.84" x2="530.02" y2="154.84" gradientUnits="userSpaceOnUse"><stop offset="0" stop-color="#fff" stop-opacity="0"/><stop offset="0.07" stop-color="#f3f3f3" stop-opacity="0.15"/><stop offset="0.21" stop-color="#dedede" stop-opacity="0.41"/><stop offset="0.35" stop-color="#cdcdcd" stop-opacity="0.62"/><stop offset="0.49" stop-color="silver" stop-opacity="0.79"/><stop offset="0.63" stop-color="#b7b7b7" stop-opacity="0.91"/><stop offset="0.77" stop-color="#b1b1b1" stop-opacity="0.98"/><stop offset="0.9" stop-color="#afafaf"/></linearGradient><linearGradient id="linear-gradient-4" x1="413.29" y1="101" x2="471.31" y2="101" gradientUnits="userSpaceOnUse"><stop offset="0.25" stop-color="#fff" stop-opacity="0"/><stop offset="0.36" stop-color="#f7f7f7" stop-opacity="0.11"/><stop offset="0.58" stop-color="#e1e1e1" stop-opacity="0.38"/><stop offset="0.88" stop-color="#bebebe" stop-opacity="0.82"/><stop offset="1" stop-color="#afafaf"/></linearGradient></defs><title>logo-qantas</title><g id="Qantas_Tail" data-name="Qantas Tail"><path class="cls-1" d="M456.38,175.49h120L480.22,78.92A68.73,68.73,0,0,0,431.91,58.5H411.79l1.5,3.93L420,79.91Z" transform="translate(-58.5 -57.83)"/></g><g id="Roo"><path class="cls-2" d="M420,79.91c13.14,22.43,47.61,24.8,51.36,59.68A3.19,3.19,0,0,0,474,142.4a118.62,118.62,0,0,1,56,24.76h0a.56.56,0,0,0,.37.13.6.6,0,0,0,.43-1A119.27,119.27,0,0,0,489,137.85l-4.86-2a6.65,6.65,0,0,1-4.16-6.34c.27-10.42,24.92-8.3,27.42-13.31l.43-.86A46.11,46.11,0,0,0,490.09,106c-.06.25-.22,1.47,1.13,3.67,1.47,2.39-1.61,6.2-6.09,2.09l-.38-.35c-33.3-30.52-58.27-14.69-71.47-48.95Z" transform="translate(-58.5 -57.83)"/></g><g id="Roo_Shading" data-name="Roo Shading"><path class="cls-3" d="M500,114.82a10.39,10.39,0,0,1-8.82-5.19,2.59,2.59,0,0,1-2.31,3.91v8.31c3.59-1,7.69-1.68,11.13-2.41Z" transform="translate(-58.5 -57.83)"/><path class="cls-4" d="M478.12,143.12a118.64,118.64,0,0,1,51.9,24C495.14,137.36,479.25,142.75,478.12,143.12Z" transform="translate(-58.5 -57.83)"/><path class="cls-5" d="M427,81.47h0c-5.42-3.85-10-9.51-13.68-19L420,79.91c13.14,22.43,47.6,24.8,51.36,59.67C467.52,95.07,448,101.72,427,81.47Z" transform="translate(-58.5 -57.83)"/></g><g id="Frequent_Flyer" data-name="Frequent Flyer"><path class="cls-2" d="M243.12,170.95h17v4.54H238V131.61h5.08Zm44.42,4.54V158l-11.42-26.38h5.34l8.82,21.3,8.68-21.3H304l-11.35,26.31v17.56Zm40.86-20.17v15.63h18.3v4.54H323.32V131.61h22.84v4.54H328.4v14.69h16.29v4.47Zm39.68,20.17V131.61H379.5c8.41,0,14.49,5.14,14.49,13.09,0,5.88-2.87,10.28-7.28,12.22l7.21,18.57h-5.54l-6.68-17.43a19.16,19.16,0,0,1-2.34.13h-6.21v17.3Zm5.08-39.4v17.7h6.08c5.88,0,9.55-3.61,9.55-9.08,0-5.21-3.67-8.61-9.55-8.61ZM63.57,83.4v19H58.5V58.5H81.34V63H63.57V78.86H79.87V83.4Zm36.2,19V58.5h11.42c8.41,0,14.49,5.14,14.49,13.09,0,5.88-2.87,10.28-7.28,12.22l7.21,18.57h-5.54L113.4,84.94a19.18,19.18,0,0,1-2.34.13h-6.21v17.3ZM104.85,63v17.7h6.08c5.88,0,9.55-3.61,9.55-9.08,0-5.21-3.67-8.61-9.55-8.61ZM150.53,82.2V97.83h18.3v4.54H145.46V58.5H168.3V63H150.53V77.73h16.29V82.2ZM258.46,58.49V89.35c0,8.41-5.28,13.69-12.89,13.69s-13-5.28-13-13.69V58.49h5.08v31c0,5.14,2.87,9,7.88,9s7.81-3.87,7.81-9v-31ZM284.18,82.2V97.83h18.3v4.54H279.1V58.5h22.84V63H284.18V77.73h16.29V82.2Zm63.62,20.17h-4.21L326.9,69v33.32h-4.67V58.5h4.47l16.43,32.79V58.5h4.67Zm19-43.87h25.71V63H382.12v39.33H377V63H366.76Z" transform="translate(-58.5 -57.83)"/><path class="cls-6" d="M206.35,110.58l-4.61-7.75a8.44,8.44,0,0,1-1.87.2c-7.88,0-13.22-5.28-13.22-13.69V71.52c0-8.41,5.08-13.69,13.22-13.69,7.81,0,13.22,5.28,13.22,13.69V89.35c0,5.68-2.4,10-6.34,12.09l5.74,9.15Zm-14.63-21.1c0,5.14,3,9,8.15,9s8.15-3.87,8.15-9V71.38c0-5.14-2.94-9-8.15-9s-8.15,3.87-8.15,9Zm4.31,67v19H191V131.61H213.8v4.54H196V152h16.29v4.54Z" transform="translate(-58.5 -57.83)"/></g></svg>