<svg id="Qantas_Money" data-name="Qantas Money" xmlns="http://www.w3.org/2000/svg" viewBox="0 0 236.01 70.87"><defs><style>.cls-1{fill:#e40000;}.cls-2{fill:#323232;}</style></defs><title>logo-qantas-money</title><path class="cls-1" d="M30.07,45.52c0-9.16,5.46-14.89,13.88-15.45v6.38c-4.35.46-6.85,4.16-6.85,8.88v32.1c0,4.72,2.5,8.42,6.85,8.88V92.7c-8.42-.56-13.88-6.29-13.88-15.45Zm21.65,55.42L46.26,92.7V86.31c4.35-.55,6.85-4.16,6.85-8.88V45.33c0-4.72-2.5-8.33-6.85-8.88V30.07c8.42.56,13.88,6.38,13.88,15.45V77.25c0,6.38-2.68,11.19-7.22,13.6l6.75,10.08Z" transform="translate(-30.07 -30.07)"/><path class="cls-2" d="M205.73,57.51c0-2.2,1.29-3.86,3.49-3.86s3.49,1.66,3.49,3.86v7.75c0,2.2-1.26,3.86-3.49,3.86s-3.49-1.66-3.49-3.86Zm9.15.06c0-3.6-2.32-5.86-5.66-5.86s-5.66,2.26-5.66,5.86V65.2c0,3.6,2.29,5.86,5.66,5.86s5.66-2.26,5.66-5.86Zm-24.85,7h1.29l3.52-7.92V70.78H197V52h-1.89l-4.32,9.78L186.32,52h-1.89V70.78h2V56.68Zm58.66-2.43V60.23h-7V53.93h7.61V52h-9.78V70.78h10V68.83h-7.84V62.14ZM259,70.78V63.29L254.12,52h2.29l3.77,9.12L263.9,52h2.17l-4.86,11.27v7.52ZM232.44,52h-2V66l-7-14h-1.92V70.78h2V56.51l7.15,14.27h1.8Zm-62.29,5.35v-.63a4.87,4.87,0,0,0-5.23-5c-3.2,0-5.26,2.12-5.26,4.75s1.63,3.95,3.75,4.95l2.12,1c1.57.74,2.89,1.37,2.89,3.55a3.25,3.25,0,0,1-3.52,3.29c-2.23,0-3.49-1.34-3.49-3.06v-.86h-2.12v.74c0,3,2.37,5,5.63,5,3.46,0,5.58-2.23,5.58-5.35s-2.2-4.35-4.32-5.35l-2.12-1c-1.32-.63-2.35-1.26-2.35-3.06a2.85,2.85,0,0,1,3.15-2.77,3,3,0,0,1,3.23,3.06v.74ZM152.94,70.78h2.26L149.76,52h-2.23l-5.38,18.79h2.14l1.14-4.32h6.32Zm-1.72-6.21H146l2.6-9.67ZM128.6,53.93H133V70.78h2.17V53.93h4.43V52h-11ZM123.14,52h-2V66l-7-14h-1.92V70.78h2V56.51l7.15,14.27h1.8ZM104.38,70.78h2.26L101.2,52H99L93.59,70.78h2.14l1.14-4.32h6.32Zm-1.72-6.21H97.43l2.6-9.67ZM79.49,57.51c0-2.2,1.29-3.86,3.49-3.86s3.49,1.66,3.49,3.86v7.75c0,2.2-1.26,3.86-3.49,3.86s-3.49-1.66-3.49-3.86ZM88.39,74.3l-2.46-3.92a5.57,5.57,0,0,0,2.72-5.18V57.57c0-3.6-2.32-5.86-5.66-5.86S77.32,54,77.32,57.57V65.2c0,3.6,2.29,5.86,5.66,5.86a3.62,3.62,0,0,0,.8-.09l2,3.32Z" transform="translate(-30.07 -30.07)"/></svg>